<?xml version="1.0" encoding="UTF-8" standalone="no"?>
<!-- Creator: CorelDRAW -->

<svg
   xmlns:dc="http://purl.org/dc/elements/1.1/"
   xmlns:cc="http://creativecommons.org/ns#"
   xmlns:rdf="http://www.w3.org/1999/02/22-rdf-syntax-ns#"
   xmlns:svg="http://www.w3.org/2000/svg"
   xmlns="http://www.w3.org/2000/svg"
   xmlns:sodipodi="http://sodipodi.sourceforge.net/DTD/sodipodi-0.dtd"
   xmlns:inkscape="http://www.inkscape.org/namespaces/inkscape"
   xml:space="preserve"
   width="109.1109mm"
   height="64.116119mm"
   style="clip-rule:evenodd;fill-rule:evenodd;image-rendering:optimizeQuality;shape-rendering:geometricPrecision;text-rendering:geometricPrecision"
   viewBox="0 0 109.1109 64.116119"
   version="1.1"
   id="svg119"
   sodipodi:docname="car-11.svg"
   inkscape:version="0.92.3 (2405546, 2018-03-11)"><metadata
   id="metadata123"><rdf:RDF><cc:Work
       rdf:about=""><dc:format>image/svg+xml</dc:format><dc:type
         rdf:resource="http://purl.org/dc/dcmitype/StillImage" /><dc:title></dc:title></cc:Work></rdf:RDF></metadata><sodipodi:namedview
   pagecolor="#ffffff"
   bordercolor="#666666"
   borderopacity="1"
   objecttolerance="10"
   gridtolerance="10"
   guidetolerance="10"
   inkscape:pageopacity="0"
   inkscape:pageshadow="2"
   inkscape:window-width="1920"
   inkscape:window-height="1017"
   id="namedview121"
   showgrid="false"
   fit-margin-top="0"
   fit-margin-left="0"
   fit-margin-right="0"
   fit-margin-bottom="0"
   showborder="false"
   inkscape:zoom="3.5076333"
   inkscape:cx="206.19383"
   inkscape:cy="121.16432"
   inkscape:window-x="-4"
   inkscape:window-y="9"
   inkscape:window-maximized="1"
   inkscape:current-layer="svg119" />
 <defs
   id="defs4"><style
     type="text/css"
     id="style2">
   <![CDATA[
    .str1 {stroke:#1F1A17;stroke-width:0.0762}
    .str0 {stroke:#AAA9A9;stroke-width:2.8222}
    .fil5 {fill:#0093DD}
    .fil2 {fill:#28166F}
    .fil4 {fill:#383431}
    .fil1 {fill:#AAA9A9}
    .fil7 {fill:#DA251D}
    .fil11 {fill:#DEDEDD}
    .fil0 {fill:white}
    .fil9 {fill:#191919}
    .fil6 {fill:#663300}
    .fil13 {fill:#669966}
    .fil16 {fill:#996699}
    .fil10 {fill:#CCCCCC}
    .fil12 {fill:#CCCCFF}
    .fil14 {fill:red}
    .fil15 {fill:#FF6600}
    .fil3 {fill:#FFCCCC}
    .fil8 {fill:#FFFF66}
   ]]>
  </style></defs>
 <g
   id="_87626864"
   transform="translate(-172.04665,-128.3488)">
   <path
   style="fill:#ffffff;stroke:#aaa9a9;stroke-width:2.82220006"
   inkscape:connector-curvature="0"
   d="m 279.74,168.567 c 0,4.7649 -3.9373,7.9038 -10.2641,9.9647 0.7298,4.6278 -0.7707,9.0293 -4.2735,11.1991 -5.052,3.1293 -12.4049,0.4632 -16.3679,-5.9349 -0.392,-0.6327 -0.7353,-1.2793 -1.033,-1.9331 -8.9405,0.5357 -18.8002,0.5329 -28.2433,0.4623 -0.3617,3.126 -1.846,5.844 -4.3672,7.4057 -5.052,3.1293 -12.4049,0.4632 -16.3679,-5.9349 -0.3324,-0.5366 -0.6295,-1.0833 -0.8941,-1.6358 -23.9288,-0.5322 -24.3375,-4.3877 -24.4685,-14.9695 -0.1419,-11.4667 5.0589,-14.3484 13.3071,-15.9994 2.9282,-7.0639 4.9923,-21.4313 31.5274,-21.4313 63.2156,0 61.445,1.3941 61.445,38.8071 z"
   class="fil0 str0"
   id="_87627968" />
   <ellipse
   style="fill:#ccccff;stroke:#1f1a17;stroke-width:0.0762"
   ry="10.0306"
   rx="6.1855602"
   cy="159.82899"
   cx="245.133"
   class="fil12 str1"
   id="_87627920" />
   <ellipse
   style="fill:#ffcccc;stroke:#1f1a17;stroke-width:0.0762"
   cy="0"
   cx="0"
   ry="5.7811999"
   rx="5.1799998"
   transform="matrix(-0.884084,0.0342781,0.0342781,0.884084,243.989,144.085)"
   class="fil3 str1"
   id="_87627872" />
   <ellipse
   style="fill:#669966;stroke:#1f1a17;stroke-width:0.0762"
   ry="10.0306"
   rx="6.1855602"
   cy="159.82899"
   cx="263.45001"
   class="fil13 str1"
   id="_87627824" />
   <ellipse
   style="fill:#ff0000;stroke:#1f1a17;stroke-width:0.0762"
   ry="10.0306"
   rx="6.1855602"
   cy="159.82899"
   cx="225.839"
   class="fil14 str1"
   id="_87627776" />
   <ellipse
   style="fill:#ffcccc;stroke:#1f1a17;stroke-width:0.0762"
   cy="0"
   cx="0"
   ry="5.7811999"
   rx="5.1799998"
   transform="matrix(-0.870776,0.156616,0.156616,0.870776,224.695,144.085)"
   class="fil3 str1"
   id="_87627728" />
   <path
   style="fill:#ff0000;stroke:#1f1a17;stroke-width:0.0762"
   inkscape:connector-curvature="0"
   d="m 229.266,143.711 c 0.9828,-0.2904 1.5806,-0.5568 1.55,-0.7268 -0.0305,-0.17 -0.6837,-0.2117 -1.7062,-0.1414 -0.6607,-2.5353 -2.9675,-4.2151 -5.3208,-3.7918 -2.4843,0.4468 -4.1038,3.0727 -3.6051,5.8455 2.5267,0.3615 5.8121,-0.329 9.0821,-1.1855 z"
   class="fil14 str1"
   id="_87627680" />
   <path
   style="fill:#663300;stroke:#1f1a17;stroke-width:0.0762"
   inkscape:connector-curvature="0"
   d="m 191.97,145.979 1e-4,-1e-4 c 0.3512,-0.1873 0.7917,-0.0532 0.979,0.2979 l 4.8439,9.0809 c 0.1873,0.3512 0.0533,0.7917 -0.2979,0.9791 v 0 c -0.3512,0.1873 -0.7918,0.0532 -0.9791,-0.2979 l -2.0813,-3.902 -5.1553,2.7499 -0.6812,-1.2769 5.1553,-2.7499 -2.0814,-3.902 c -0.1873,-0.3512 -0.0532,-0.7917 0.2979,-0.979 z"
   class="fil6 str1"
   id="_87627632" />
   <ellipse
   style="fill:#ff6600;stroke:#1f1a17;stroke-width:0.0762"
   ry="11.633"
   rx="7.17377"
   cy="161.343"
   cx="204.24899"
   class="fil15 str1"
   id="_87627584" />
   <ellipse
   style="fill:#ffcccc;stroke:#1f1a17;stroke-width:0.0762"
   cy="0"
   cx="0"
   ry="5.7811999"
   rx="5.1799998"
   transform="matrix(1.00989,0.181637,-0.181637,1.00989,205.472,142.633)"
   class="fil3 str1"
   id="_87627536" />
   <path
   style="fill:#ff6600;stroke:#1f1a17;stroke-width:0.0762"
   inkscape:connector-curvature="0"
   d="m 200.17,142.2 c -1.1398,-0.3368 -1.8331,-0.6458 -1.7976,-0.8429 0.0354,-0.1972 0.793,-0.2456 1.9787,-0.1641 0.7664,-2.9402 3.4417,-4.8884 6.1709,-4.3975 2.8812,0.5182 4.7595,3.5636 4.1811,6.7793 -2.9304,0.4193 -6.7406,-0.3815 -10.5331,-1.3748 z"
   class="fil15 str1"
   id="_87627488" />
   <path
   style="fill:#996699;stroke:#1f1a17;stroke-width:0.0762"
   inkscape:connector-curvature="0"
   d="m 279.74,168.567 c 0,16.1033 -44.9322,13.6594 -75.3018,13.6594 -30.3695,0 -30.8358,-3.569 -30.9777,-15.0357 -0.1419,-11.4668 5.0589,-14.3484 13.307,-15.9994 2.9282,-7.0639 4.9924,-21.4314 31.5275,-21.4314 63.2156,0 61.445,1.3942 61.445,38.8071 z m -18.2293,-35.1063 c 4.7899,0 9.5304,3.3945 9.5304,8.5239 0,5.1294 0.7705,10.5128 -6.5725,10.5128 -7.3431,0 -8.4529,-3.6186 -8.4529,-10.6549 0,-7.0362 0.7052,-8.3818 5.495,-8.3818 z m -16.647,-0.7103 c 5.4581,0 8.3107,0.8473 8.3107,9.0921 0,8.2449 -0.8256,10.6549 -8.1686,10.6549 -7.3431,0 -8.4529,-3.6186 -8.4529,-10.6549 0,-7.0362 2.8526,-9.0921 8.3108,-9.0921 z m -19.4628,0 c 5.4581,0 8.3107,0.8473 8.3107,9.0921 0,8.2449 -0.8256,10.6549 -8.1686,10.6549 -7.3431,0 -8.4529,-3.6186 -8.4529,-10.6549 0,-7.0362 2.8526,-9.0921 8.3108,-9.0921 z m -11.042,13.4923 c 0,4.9979 -5.1267,6.8587 -11.3879,6.8587 -9.5475,0 -14.1812,-1.0894 -11.8062,-5.9634 2.9875,-6.1312 5.313,-14.2532 20.2653,-14.2532 4.7034,0 2.9288,8.36 2.9288,13.3579 z"
   class="fil16 str1"
   id="_87627416" />
   <path
   style="fill:#ffff66;stroke:#1f1a17;stroke-width:0.0762"
   inkscape:connector-curvature="0"
   d="m 175.282,168.983 v 4.734 c 2.6141,0 4.734,-2.1198 4.734,-4.734 0,-2.614 -2.1199,-4.7339 -4.734,-4.7339 z"
   class="fil8 str1"
   id="_87627368" />
   <path
   style="fill:#ffff66;stroke:#1f1a17;stroke-width:0.0762"
   inkscape:connector-curvature="0"
   d="m 278.081,169.751 v 1.7759 c -0.9806,0 -1.776,-0.7952 -1.776,-1.7759 0,-0.9808 0.7954,-1.7761 1.776,-1.7761 z"
   class="fil8 str1"
   id="_87627320" />
   <circle
   style="fill:#191919;stroke:#1f1a17;stroke-width:0.0762"
   cy="0"
   cx="0"
   r="4.6368999"
   transform="matrix(1.97815,-1.22529,1.55177,2.50522,207.995,178.114)"
   class="fil9 str1"
   id="_87627272" />
   <circle
   style="fill:#cccccc;stroke:#1f1a17;stroke-width:0.0762"
   cy="0"
   cx="0"
   r="4.6368999"
   transform="matrix(0.665248,-0.412065,0.412065,0.665248,207.996,178.114)"
   class="fil10 str1"
   id="_87627224" />
   <circle
   style="fill:#191919;stroke:#1f1a17;stroke-width:0.0762"
   cy="0"
   cx="0"
   r="4.6368999"
   transform="matrix(0.212295,-0.131499,0.131499,0.212295,207.996,178.114)"
   class="fil9 str1"
   id="_87627176" />
   <circle
   style="fill:#191919;stroke:#1f1a17;stroke-width:0.0762"
   cy="0"
   cx="0"
   r="4.6368999"
   transform="matrix(1.97815,-1.22529,1.55177,2.50522,258.007,178.114)"
   class="fil9 str1"
   id="_87627128" />
   <circle
   style="fill:#cccccc;stroke:#1f1a17;stroke-width:0.0762"
   cy="0"
   cx="0"
   r="4.6368999"
   transform="matrix(0.665248,-0.412065,0.412065,0.665248,258.007,178.114)"
   class="fil10 str1"
   id="_87627080" />
   <circle
   style="fill:#191919;stroke:#1f1a17;stroke-width:0.0762"
   cy="0"
   cx="0"
   r="4.6368999"
   transform="matrix(0.212295,-0.131499,0.131499,0.212295,258.007,178.114)"
   class="fil9 str1"
   id="_87627032" />
   <path
   style="fill:#ccccff;stroke:#1f1a17;stroke-width:0.0762"
   inkscape:connector-curvature="0"
   d="m 248.456,142.985 c 0.9385,0.0458 1.5164,0.1532 1.5281,0.3157 0.0115,0.1597 -0.5259,0.3454 -1.4204,0.5228 -3.227,-0.2064 -6.9976,-0.0646 -9.1437,0.6311 -0.7745,-0.0525 -1.2418,-0.1537 -1.2523,-0.2994 -0.0108,-0.1495 0.4582,-0.3221 1.2498,-0.4888 0.1673,-2.5469 2.0309,-4.6012 4.3729,-4.6921 2.2391,-0.0868 4.1811,1.6502 4.6656,4.0107 z"
   class="fil12 str1"
   id="_87626984" />
   <ellipse
   style="fill:#ffcccc;stroke:#1f1a17;stroke-width:0.0762"
   cy="0"
   cx="0"
   ry="5.7811999"
   rx="5.1799998"
   transform="matrix(0.883402,0.0488024,-0.0488024,0.883402,263.922,143.626)"
   class="fil3 str1"
   id="_87626936" />
   <path
   style="fill:#669966;stroke:#1f1a17;stroke-width:0.0762"
   inkscape:connector-curvature="0"
   d="m 259.339,143.814 c -1.011,-0.1678 -1.6369,-0.3591 -1.6274,-0.5315 0.01,-0.1724 0.6527,-0.2938 1.6761,-0.3493 0.3453,-2.5971 2.429,-4.5467 4.8164,-4.4148 2.5203,0.1392 4.4493,2.547 4.2939,5.36 -2.4635,0.6682 -5.8087,0.3852 -9.159,-0.0644 z"
   class="fil13 str1"
   id="_87626888" />
  </g>
</svg>